# xmcd CD database file
#
# Track frame offsets:
#	150
#	15107
#	31490
#	49875
#	63538
#	78696
#	105643
#	120376
#	137345
#	152188
#	167414
#	181458
#	199470
#	216596
#	233857
#	251026
#
# Disc length: 3575 seconds
#
# Revision: 1
# Processed by: cddbd v1.5.2PL0 Copyright (c) Steve Scherf et al.
# Submitted via: CDex 1.51
#
DISCID=de0df510
DTITLE=Tierra Negra - The Elements
DYEAR=2007
DGENRE=Flamenco Gitarre
TTITLE0=Junto Al Mar
TTITLE1=Rastafa Mariachi
TTITLE2=Watching The Blaze
TTITLE3=Tu Es Libre
TTITLE4=Offshore Wind
TTITLE5=Song for The Twins
TTITLE6=Road To Phoenix
TTITLE7=Tempo del Mar
TTITLE8=Hommage A Manitas
TTITLE9=Ripples from the Rain
TTITLE10=Cerca de Ti
TTITLE11=Zephyr
TTITLE12=El Accurario
TTITLE13=North and South
TTITLE14=La Brisa
TTITLE15=The Painting
EXTD=YEAR: 2007
EXTT0=
EXTT1=
EXTT2=
EXTT3=
EXTT4=
EXTT5=
EXTT6=
EXTT7=
EXTT8=
EXTT9=
EXTT10=
EXTT11=
EXTT12=
EXTT13=
EXTT14=
EXTT15=
PLAYORDER=
